# xmcd CD database file
#
# Track frame offsets:
#	150
#	10102
#	68622
#	103988
#	137166
#	152473
#	192434
#	204526
#	230000
#	244346
#
# Disc length: 3438 seconds
#
# Revision: 0
# Processed by: cddbd v1.5.2PL0 Copyright (c) Steve Scherf et al.
# Submitted via: CDex 1.51
#
DISCID=880d6c0a
DTITLE=Jim Ryan's Forward Energy Trio - FE3 Portland
DYEAR=2006
DGENRE=Jazz
TTITLE0=Hit
TTITLE1=Bob Bin In
TTITLE2=Powedered Pussy
TTITLE3=Flute Song
TTITLE4=Big Mountain
TTITLE5=Seasoned Lover
TTITLE6=Rumble Seat
TTITLE7=Twilight Zone
TTITLE8=How R. U.?
TTITLE9=Pocahontas Shuffle
EXTD=YEAR: 2006
EXTT0=
EXTT1=
EXTT2=
EXTT3=
EXTT4=
EXTT5=
EXTT6=
EXTT7=
EXTT8=
EXTT9=
PLAYORDER=
